<svg xmlns="http://www.w3.org/2000/svg" viewBox="0 0 840.96 272.58"><defs><style>.cls-1{fill:#fff;}</style></defs><title>logo_white</title><g id="Layer_2" data-name="Layer 2"><g id="Layer_1-2" data-name="Layer 1"><g id="Logo"><path class="cls-1" d="M203,20.47a675.34,675.34,0,0,1-21.91,78.89A320.23,320.23,0,0,1,233,95a267.8,267.8,0,0,1,28.32,1.35c13.82-38.1,29.66-74.51,40.45-95.08,1.35-2.69,5.73-.67,4,2-10.79,20.22-26,56-39.78,93.38a360.17,360.17,0,0,1,50.9,9.1c3,1,1.35,5.4-1.35,4.73a372.51,372.51,0,0,0-51.24-9.11c-12.81,36.07-23.94,72.82-27.64,98.44-.34,3-5.4,2.36-4.72-.67,3.7-25.28,14.83-62.37,27.64-98.11A238.36,238.36,0,0,0,233,99.7a302.08,302.08,0,0,0-53.61,4.71c-27,75.19-73.16,156.1-147.66,156.1C14.16,260.51,0,247.36,0,230.84,0,194.1,68.1,120.6,175.64,100.37a660.15,660.15,0,0,0,22.59-80.58C198.9,17.1,203.62,17.1,203,20.47Zm-29,85C69.78,125.7,4.72,195.47,4.72,230.88c0,13.82,12.13,25,27,25,71.09,0,115.93-77.24,142.24-150.4Z"/><path class="cls-1" d="M330.7,168.47C324,171.17,319.57,186,324.63,186c3.71,0,6.4-6.74,5.39-12.81-.33-3,2-3.71,3.71-3.37A125.54,125.54,0,0,0,359,172.18c13.82,0,26-1.69,36.41-5.39,2.69-.68,4,3.37,1.35,4.72-10.46,3.71-23.27,5.39-37.76,5.39a163.3,163.3,0,0,1-23.6-1.35c.33,6.41-3.38,15.17-10.79,15.17-12.14,0-6.74-22.92,4-27C331.37,163.08,333.39,167.46,330.7,168.47Z"/><path class="cls-1" d="M396.09,171.51c2.7,7.08,9.78,12.13,21.58,12.13,11.46,0,27.65-4.72,48.55-16.52,2.36-1,4,2.7,2,4-21.58,12.47-38.43,17.19-50.57,17.19-19.55,0-28-11.8-28-26,0-30.68,25.28-56.64,43.83-56.64,8.09,0,12.13,5.06,12.13,12.82C445.65,132.74,429.47,158,396.09,171.51Zm-1.34-4.72C426.1,154,441,131.39,441,118.58c0-5.06-2.69-8.09-7.41-8.09-16.52,0-39.11,23.93-39.11,51.91A17.46,17.46,0,0,0,394.75,166.79Z"/><path class="cls-1" d="M469.25,169.82c-2.7,9.1,2.69,14.83,11.12,14.83,17.19,0,42.48-7.41,59.67-17.53a2.43,2.43,0,0,1,2.7,4c-17.87,10.79-44.5,18.21-62.37,18.21-12.47,0-19.89-7.76-15.85-20.91C465.54,166.11,469.58,167.46,469.25,169.82Zm11.12-29.33c-2.7.68-4-4.05-1.35-4.72l9.78-2.36c3.37-.67,4.38,4,1.35,4.72Z"/><path class="cls-1" d="M561.61,165.44c-13.14,0-28.65,8.76-28.31,15.51a1.44,1.44,0,0,0,1.34,1.34c15.85,0,41.81-20.22,59.68-61,1-2.69,5-1,4.38,1.69-3,12.47-4.72,23.94-4.72,33,0,15.51,4.72,25.28,15.17,25.28,12.14,0,21.58-3.37,40.46-13.15,3.37-1.68,4,2.7,2,4C631.74,182.63,622,186,609.15,186c-13.82,0-19.89-11.8-19.89-30a143.41,143.41,0,0,1,1-16.18C571.72,172.52,549.47,187,534.63,187a6,6,0,0,1-6.07-5.93V181c-.33-8.77,17.2-20.23,33-20.23C565.32,161.06,564,165.44,561.61,165.44Z"/><path class="cls-1" d="M671.51,168.13c.34-1.68-.34-4.71-3.37-4.71-7.08,0-17.87,9.1-17.87,15.17,0,3.37,8.09-1.35,15.17-7.42,2.7-2.36,4.38-1.35,6.07.34,6.07,6.07,14.5,8.09,20.9,8.09,11.13,0,25.62-5.73,36.75-12.48,3.37-1.35,5.06,2.36,2.7,4-11.8,7.08-27.31,13.15-39.45,13.15a36.07,36.07,0,0,1-24.61-9.1c-11.12,10.78-22.25,12.47-22.25,3.37,0-8.1,13.49-19.89,22.59-19.89,7.08,0,8.43,6.4,8.09,10.11C675.22,170.83,671.51,170.83,671.51,168.13Z"/><path class="cls-1" d="M839.4,171.51c-21.58,5.05-43.83,11.12-63,17.87v2.69c0,20.9-14.83,55.63-47.87,55.63-8.77,0-15.51-6.74-15.51-14.84,0-18.88,25-34.05,58.32-46.18-.67-4.05-2.36-6.41-4.72-6.41-7.75,0-14.49,4.38-23.26,4.38-10.11,0-16.52-4.72-14.5-16.52.68-2.36,5.06-2.36,4.73.68-1.35,7.75,3,11.12,9.77,11.12,8.09,0,14.84-4.38,23.26-4.38,4.39,0,7.42,3.71,8.77,9.44,19.55-6.74,41.47-12.81,62.71-18.2C841.08,166.11,842.09,170.49,839.4,171.51Zm-67.77,20.56v-1c-31,11.46-53.94,25.28-53.94,41.8,0,5.4,4.72,10.12,10.79,10.12,29.67,0,43.15-32,43.15-50.92Z"/><path class="cls-1" d="M248.58,223.56h10.51v17.8h20.43v-17.8H290v47.73H279.52V250.66H259.09v20.63H248.58Z"/><path class="cls-1" d="M316.67,247.43A27,27,0,0,1,318.59,237a22.91,22.91,0,0,1,5.36-7.92,23.85,23.85,0,0,1,8.16-5,31.32,31.32,0,0,1,20.63,0,23.55,23.55,0,0,1,8.16,5,22.64,22.64,0,0,1,5.36,7.92,29,29,0,0,1,0,20.77,22.64,22.64,0,0,1-5.36,7.92,23.45,23.45,0,0,1-8.16,5,31.07,31.07,0,0,1-20.63,0,23.55,23.55,0,0,1-8.16-5,22.91,22.91,0,0,1-5.36-7.92A27.11,27.11,0,0,1,316.67,247.43Zm10.93,0a17.51,17.51,0,0,0,1,6.17,14.19,14.19,0,0,0,3,4.85,13.74,13.74,0,0,0,4.69,3.2,16.79,16.79,0,0,0,12.2,0,13.74,13.74,0,0,0,4.69-3.2,14.19,14.19,0,0,0,3-4.85,18.69,18.69,0,0,0,0-12.31,14.27,14.27,0,0,0-3-4.89,13.74,13.74,0,0,0-4.69-3.2,16.79,16.79,0,0,0-12.2,0,13.74,13.74,0,0,0-4.69,3.2,14.27,14.27,0,0,0-3,4.89A17.35,17.35,0,0,0,327.6,247.43Z"/><path class="cls-1" d="M435.07,252.89a23.11,23.11,0,0,1-1.28,7.82A16.88,16.88,0,0,1,423.67,271a26.28,26.28,0,0,1-17.46,0,16.89,16.89,0,0,1-10.11-10.31,22.88,22.88,0,0,1-1.29-7.82V223.56h10.52v28.92a11.77,11.77,0,0,0,.71,4.11,10.05,10.05,0,0,0,2,3.28,8.89,8.89,0,0,0,3.07,2.15,9.53,9.53,0,0,0,3.87.78,9.28,9.28,0,0,0,3.85-.78,8.89,8.89,0,0,0,3-2.15,10.05,10.05,0,0,0,2-3.28,11.77,11.77,0,0,0,.71-4.11V223.56h10.52Z"/><path class="cls-1" d="M487.86,235.22a7.56,7.56,0,0,0-3.47-2.39,12.51,12.51,0,0,0-4.15-.78,10.42,10.42,0,0,0-2.36.27,9.28,9.28,0,0,0-2.29.85,5,5,0,0,0-1.76,1.51,3.92,3.92,0,0,0-.67,2.3,3.81,3.81,0,0,0,1.62,3.3,15.17,15.17,0,0,0,4.08,2q2.46.81,5.29,1.62a22.18,22.18,0,0,1,5.29,2.29,12.57,12.57,0,0,1,4.08,4,12.18,12.18,0,0,1,1.62,6.68,15.28,15.28,0,0,1-1.48,6.94,14,14,0,0,1-4,4.92,17,17,0,0,1-5.87,2.9,26.78,26.78,0,0,1-15.68-.47,21.47,21.47,0,0,1-7.41-4.58l7.48-8.23a11,11,0,0,0,4.08,3.34,11.83,11.83,0,0,0,5.09,1.18,10.82,10.82,0,0,0,2.6-.31,8.66,8.66,0,0,0,2.36-.9A5.23,5.23,0,0,0,484,260a3.79,3.79,0,0,0,.64-2.22A4,4,0,0,0,483,254.4a14.94,14.94,0,0,0-4.15-2.12c-1.66-.58-3.46-1.17-5.39-1.75a24.43,24.43,0,0,1-5.39-2.36,12.82,12.82,0,0,1-4.15-3.91,11.22,11.22,0,0,1-1.65-6.41,14.32,14.32,0,0,1,1.52-6.74,14.7,14.7,0,0,1,4-4.86,17.78,17.78,0,0,1,5.83-2.93,23.78,23.78,0,0,1,6.81-1,26.91,26.91,0,0,1,7.82,1.14A18.13,18.13,0,0,1,495,227.3Z"/><path class="cls-1" d="M522.85,223.56h32.43v9.71H533.37v8.9h20.7v9.71h-20.7v9.71H556.5v9.7H522.85Z"/><path class="cls-1" d="M608,235.22a7.59,7.59,0,0,0-3.48-2.39,12.5,12.5,0,0,0-4.14-.78,10.42,10.42,0,0,0-2.36.27,9.5,9.5,0,0,0-2.3.85,5.09,5.09,0,0,0-1.75,1.51,3.85,3.85,0,0,0-.67,2.3,3.81,3.81,0,0,0,1.62,3.3,14.88,14.88,0,0,0,4.08,2c1.63.54,3.4,1.08,5.29,1.62a22.18,22.18,0,0,1,5.29,2.29,12.57,12.57,0,0,1,4.08,4,12.18,12.18,0,0,1,1.62,6.68,15.39,15.39,0,0,1-1.49,6.94,14,14,0,0,1-4,4.92,17,17,0,0,1-5.86,2.9,26.78,26.78,0,0,1-15.68-.47,21.76,21.76,0,0,1-7.42-4.58l7.49-8.23a11,11,0,0,0,4.08,3.34,11.69,11.69,0,0,0,5.09,1.18,10.79,10.79,0,0,0,2.59-.31,8.34,8.34,0,0,0,2.36-.9,5.25,5.25,0,0,0,1.69-1.56,3.81,3.81,0,0,0,.64-2.22,4.05,4.05,0,0,0-1.65-3.41,15.22,15.22,0,0,0-4.15-2.12c-1.66-.58-3.46-1.17-5.39-1.75a24.71,24.71,0,0,1-5.4-2.36,13,13,0,0,1-4.14-3.91,11.13,11.13,0,0,1-1.66-6.41,14.32,14.32,0,0,1,1.52-6.74,14.7,14.7,0,0,1,4-4.86,17.78,17.78,0,0,1,5.83-2.93,23.78,23.78,0,0,1,6.81-1,26.91,26.91,0,0,1,7.82,1.14,18.2,18.2,0,0,1,6.81,3.84Z"/></g></g></g></svg>